# xmcd
#
# Track frame offsets: 
#        150
#        8830
#        26330
#        40102
#        45797
#        56982
#        72652
#        78114
#        83704
#        96111
#        105713
#        123490
#        139505
#        151732
#        166277
#        179007
#        195202
#        208667
#        223797
#
# Disc length: 3167 seconds
#
# Revision: 1
# Processed by: cddbd v1.5.2PL0 Copyright (c) Steve Scherf et al.
# Submitted via: ExactAudioCopy v1.0b4
#
DISCID=f50c5d13
DTITLE=CeDell Davis and Herman Alexander - Highway 61
DYEAR=1990
DGENRE=Blues, Bluegrass
TTITLE0=You Got To Move
TTITLE1=Red Dressed Baby
TTITLE2=Highway 61
TTITLE3=Boogie All Night Long
TTITLE4=Gamblin' Blues
TTITLE5=Down Home Blues
TTITLE6=Baby Please Don't Go
TTITLE7=Poor Boy Blues
TTITLE8=Catfish Blues
TTITLE9=Dog Chasing The Fox
TTITLE10=It's All Right
TTITLE11=Blues For Big Town
TTITLE12=When I Woke Up This Morning
TTITLE13=Chicken And A Hawk
TTITLE14=Sugar Mama
TTITLE15=Got To Move Down The Road
TTITLE16=Room 701
TTITLE17=74 Is a Freight Train
TTITLE18=Hard Luck Blues
EXTD=YEAR: 1990
EXTT0=
EXTT1=
EXTT2=
EXTT3=
EXTT4=
EXTT5=
EXTT6=
EXTT7=
EXTT8=
EXTT9=
EXTT10=
EXTT11=
EXTT12=
EXTT13=
EXTT14=
EXTT15=
EXTT16=
EXTT17=
EXTT18=
PLAYORDER=
